<svg width="9" height="10" viewBox="0 0 9 10" fill="none" xmlns="http://www.w3.org/2000/svg">
<g clip-path="url(#clip0_386_150)">
<path fill-rule="evenodd" clip-rule="evenodd" d="M5.39597 3.03269C5.39597 2.61614 5.73365 2.27846 6.1502 2.27846C6.56676 2.27846 6.90444 2.61614 6.90444 3.03269C6.90444 3.4435 6.57602 3.77759 6.16741 3.78674C6.16167 3.78669 6.15592 3.78667 6.15016 3.78667C6.14443 3.78667 6.1387 3.78669 6.13297 3.78674C5.72438 3.77758 5.39597 3.44349 5.39597 3.03269ZM5.24967 3.99888C4.99111 3.75778 4.82942 3.41412 4.82942 3.03269C4.82942 2.30325 5.42076 1.71191 6.1502 1.71191C6.87965 1.71191 7.47099 2.30325 7.47099 3.03269C7.47099 3.41413 7.30929 3.75781 7.05071 3.99891C7.71002 4.32938 8.16259 5.01138 8.16259 5.79909V5.97201C8.16259 6.12845 8.03576 6.25528 7.87932 6.25528C7.72287 6.25528 7.59604 6.12845 7.59604 5.97201V5.79909C7.59604 5.00702 6.95914 4.3637 6.16952 4.35334C6.16309 4.35343 6.15666 4.35348 6.1502 4.35348C6.14374 4.35348 6.13729 4.35343 6.13085 4.35334C5.36639 4.36335 4.74506 4.96662 4.70621 5.72379C5.13526 6.20238 5.39621 6.83478 5.39621 7.52813V7.87396C5.39621 8.0304 5.26938 8.15723 5.11293 8.15723C4.95649 8.15723 4.82966 8.0304 4.82966 7.87396V7.52813C4.82966 6.35562 3.88562 5.40361 2.71617 5.39072L2.69191 5.39089L2.66784 5.39072C1.4985 5.40374 0.554583 6.3557 0.554583 7.52813V7.87396C0.554583 8.0304 0.427757 8.15723 0.27131 8.15723C0.114863 8.15723 -0.0119629 8.0304 -0.0119629 7.87396V7.52813C-0.0119629 6.40183 0.676626 5.43637 1.65578 5.02975C1.27163 4.72444 1.02531 4.25313 1.02531 3.7243C1.02531 2.80386 1.77147 2.05771 2.69191 2.05771C3.61234 2.05771 4.3585 2.80386 4.3585 3.7243C4.3585 4.25307 4.11226 4.72432 3.72818 5.02963C3.89592 5.09926 4.05512 5.1853 4.20381 5.28573C4.3521 4.72197 4.73884 4.25491 5.24967 3.99888ZM2.69191 2.62425C2.08437 2.62425 1.59186 3.11676 1.59186 3.7243C1.59186 4.32448 2.07251 4.8124 2.66988 4.82413L2.69212 4.82404L2.71406 4.82413C3.31137 4.81233 3.79196 4.32444 3.79196 3.7243C3.79196 3.11676 3.29945 2.62425 2.69191 2.62425Z" fill="white"/>
</g>
<defs>
<clipPath id="clip0_386_150">
<rect width="8.09351" height="8.09351" fill="white" transform="translate(0.0285645 0.943237)"/>
</clipPath>
</defs>
</svg>
