<svg width="21" height="21" viewBox="0 0 21 21" fill="none" xmlns="http://www.w3.org/2000/svg">
<g clip-path="url(#clip0_401_394)">
<path d="M1.39758 16.9397V16.1303C1.39758 13.0014 3.9341 10.4648 7.06304 10.4648V10.4648C10.192 10.4648 12.7285 13.0014 12.7285 16.1303V16.9397" stroke="#3B505A" stroke-width="1.21403" stroke-linecap="round"/>
<path d="M11.1095 12.0841V12.0841C11.1095 9.84915 12.9213 8.03735 15.1563 8.03735V8.03735C17.3912 8.03735 19.203 9.84915 19.203 12.0841V12.4888" stroke="#3B505A" stroke-width="1.21403" stroke-linecap="round"/>
<path d="M7.06309 10.4653C8.85106 10.4653 10.3005 9.01585 10.3005 7.22788C10.3005 5.43991 8.85106 3.99048 7.06309 3.99048C5.27512 3.99048 3.82568 5.43991 3.82568 7.22788C3.82568 9.01585 5.27512 10.4653 7.06309 10.4653Z" stroke="#3B505A" stroke-width="1.21403" stroke-linecap="round" stroke-linejoin="round"/>
<path d="M15.1563 8.03799C16.4973 8.03799 17.5844 6.95091 17.5844 5.60994C17.5844 4.26896 16.4973 3.18188 15.1563 3.18188C13.8153 3.18188 12.7283 4.26896 12.7283 5.60994C12.7283 6.95091 13.8153 8.03799 15.1563 8.03799Z" stroke="#3B505A" stroke-width="1.21403" stroke-linecap="round" stroke-linejoin="round"/>
</g>
<defs>
<clipPath id="clip0_401_394">
<rect width="19.4244" height="19.4244" fill="white" transform="translate(0.588257 0.752686)"/>
</clipPath>
</defs>
</svg>
