<svg width="20" height="20" viewBox="0 0 20 20" fill="none" xmlns="http://www.w3.org/2000/svg">
<path d="M10.0703 13.347C11.8583 13.347 13.3077 11.8976 13.3077 10.1096C13.3077 8.32163 11.8583 6.87219 10.0703 6.87219C8.28232 6.87219 6.83289 8.32163 6.83289 10.1096C6.83289 11.8976 8.28232 13.347 10.0703 13.347Z" stroke="#3B505A" stroke-width="1.21403" stroke-linecap="round" stroke-linejoin="round"/>
<path d="M2.78595 13.3469V6.87207C2.78595 4.63711 4.59774 2.82532 6.8327 2.82532H13.3075C15.5425 2.82532 17.3543 4.63711 17.3543 6.87207V13.3469C17.3543 15.5818 15.5425 17.3936 13.3075 17.3936H6.83271C4.59774 17.3936 2.78595 15.5818 2.78595 13.3469Z" stroke="#3B505A" stroke-width="1.21403"/>
<path d="M14.5217 5.66645L14.5304 5.65681" stroke="#3B505A" stroke-width="1.21403" stroke-linecap="round" stroke-linejoin="round"/>
</svg>
