<svg width="21" height="20" viewBox="0 0 21 20" fill="none" xmlns="http://www.w3.org/2000/svg">
<path d="M12.0628 10.1096L9.23004 11.7283V8.49087L12.0628 10.1096Z" fill="#3B505A" stroke="#3B505A" stroke-width="1.21403" stroke-linecap="round" stroke-linejoin="round"/>
<path d="M2.35059 10.682V9.53662C2.35059 7.19328 2.35059 6.02161 3.08345 5.26772C3.81631 4.51384 4.9701 4.48121 7.27767 4.41594C8.37113 4.38501 9.48811 4.36285 10.4441 4.36285C11.4001 4.36285 12.5171 4.38501 13.6105 4.41594C15.9181 4.48121 17.0719 4.51384 17.8047 5.26772C18.5376 6.02161 18.5376 7.19328 18.5376 9.53662V10.682C18.5376 13.0253 18.5376 14.1969 17.8048 14.9508C17.0719 15.7047 15.9181 15.7373 13.6106 15.8026C12.5171 15.8336 11.4001 15.8557 10.4441 15.8557C9.48809 15.8557 8.37108 15.8336 7.27759 15.8026C4.97006 15.7373 3.81629 15.7047 3.08344 14.9508C2.35059 14.1969 2.35059 13.0253 2.35059 10.682Z" stroke="#3B505A" stroke-width="1.21403"/>
</svg>
